<svg xmlns="http://www.w3.org/2000/svg" viewBox="0 0 9.993 12.79">
    <path d="M9.99 6.39l-.322 3.93a.75945375.75945375 0 01-1.514-.122l.25-3.06-1.027.057a3.888 3.888 0 01-.662 4.372l-.982-.982a2.5 2.5 0 00-3.527-3.527l-.982-.982a3.875 3.875 0 012.033-1L5.139 2.93l-1.064-.62-1.29 1.15a.76.76 0 01-1.012-1.134L3.473.81A.757.757 0 014.36.72s3.48 2.021 3.485 2.026A.891.891 0 018 4.059L6.538 5.721l2.651-.147a.758.758 0 01.801.816zM8.369 2.543A1.272 1.272 0 107.1 1.272a1.272 1.272 0 001.269 1.271zM3.887 11.4a2.5 2.5 0 01-2.066-3.9l-.992-.992A3.843 3.843 0 000 8.9a3.89 3.89 0 006.28 3.06l-.992-.992a2.481 2.481 0 01-1.401.432z" fill="currentColor"/>
</svg>
