<svg xmlns="http://www.w3.org/2000/svg" width="122.285" height="26.462" viewBox="0 0 122.285 26.462"><defs><style>.a{fill:#ffb48d;}.b{fill:#842c43;}</style></defs><g transform="translate(-6294.711 -1305)"><g transform="translate(6294.711 1305)"><g transform="translate(0 0)"><path class="a" d="M19.089,31.032,15.7,26.175c-1.122-1.608-6.97,2.471-5.848,4.079l6.3,9.038a3.576,3.576,0,0,0,4.964.884,3.526,3.526,0,0,0,1.067-1.189l0,0,.014-.032a3.571,3.571,0,0,0,.212-.462c1.3-2.792,8.167-16.9,17.763-24.143C40.18,14.352,28.1,14.657,19.089,31.032Z" transform="translate(-9.711 -14.352)"/></g></g><path class="b" d="M-42.47-22a5.068,5.068,0,0,1-4.15,2.184c-3.674,0-5.958-2.7-5.958-6.2s2.284-6.2,5.958-6.2A4.483,4.483,0,0,1-42.848-30.3l1.072-.894a5.852,5.852,0,0,0-4.846-2.2,7.039,7.039,0,0,0-7.268,7.387,7.039,7.039,0,0,0,7.268,7.387A6.11,6.11,0,0,0-41.4-21.183Zm10.366.556a3.686,3.686,0,0,1-3.078,1.628,3.424,3.424,0,0,1-3.475-3.455h7.705V-24.1a4.172,4.172,0,0,0-4.309-4.289,4.558,4.558,0,0,0-4.587,4.806A4.516,4.516,0,0,0-35.2-18.74a4.5,4.5,0,0,0,3.972-1.966Zm-6.553-2.9a3.4,3.4,0,0,1,3.336-2.979,3.086,3.086,0,0,1,3.177,2.979Zm10.366,5.362H-27.1v-5c0-1.787.933-3.217,3-3.217a1.469,1.469,0,0,1,.457.079l.139-1.172a2.8,2.8,0,0,0-.7-.1,3.259,3.259,0,0,0-2.919,1.847c-.04-.179-.06-.933-.079-1.609H-28.39c0,.477.1,1.906.1,2.582Zm11.1-9.175h-2.621v-2.641H-21v2.641h-1.986v1.072H-21V-21.1A2.14,2.14,0,0,0-18.64-18.74a5.251,5.251,0,0,0,1.549-.318l-.1-1.072a3.538,3.538,0,0,1-1.35.318A1.175,1.175,0,0,1-19.812-21.1v-5.977h2.621Zm9.254,3.078c0-2.323-1.43-3.316-3.654-3.316a5.352,5.352,0,0,0-3.5,1.291l.7.814a4.143,4.143,0,0,1,2.8-1.033c1.47,0,2.582.635,2.582,2.224v.556H-10.4c-1.807,0-5.084.278-5.084,3.078,0,1.946,1.668,2.721,3.237,2.721a3.341,3.341,0,0,0,3.217-1.728h.04a8.876,8.876,0,0,0,.119,1.489h1.112a28.134,28.134,0,0,1-.179-3.853Zm-1.072,1.489v.616a2.859,2.859,0,0,1-3.2,3.158,1.891,1.891,0,0,1-2.085-1.708c0-1.569,1.986-2.065,3.972-2.065Z" transform="translate(6424.753 1348.154)"/><path class="b" d="M-65-19.763h9.909v-2.86H-61.9v-2.86h6.1v-2.86h-6.1v-2.621h6.454v-2.86H-65Zm19.3-8.619a4.875,4.875,0,0,0-3.575-1.271c-2.026,0-4.051.993-4.051,3.257,0,3.674,5.024,2.363,5.024,3.912,0,.516-.675.7-1.35.7a2.587,2.587,0,0,1-2.105-1.053l-1.807,2.006a5.312,5.312,0,0,0,3.793,1.311c2.065,0,4.448-.715,4.448-3.177,0-3.674-5.024-2.462-5.024-3.892,0-.576.6-.794,1.092-.794a2.128,2.128,0,0,1,1.728.814Zm10.406.02a4.843,4.843,0,0,0-3.436-1.291,5.036,5.036,0,0,0-5.362,5.064,5.036,5.036,0,0,0,5.362,5.064,4.843,4.843,0,0,0,3.436-1.291l-1.966-2.065a1.9,1.9,0,0,1-1.47.735,2.257,2.257,0,0,1-2.383-2.443,2.257,2.257,0,0,1,2.383-2.443,1.84,1.84,0,0,1,1.47.735Zm.715,3.773a5.036,5.036,0,0,0,5.362,5.064,5.036,5.036,0,0,0,5.362-5.064,5.036,5.036,0,0,0-5.362-5.064A5.036,5.036,0,0,0-34.575-24.589Zm2.979,0a2.257,2.257,0,0,1,2.383-2.443,2.257,2.257,0,0,1,2.383,2.443,2.257,2.257,0,0,1-2.383,2.443A2.257,2.257,0,0,1-31.6-24.589Zm9.532,4.826h2.979V-34.776h-2.979Zm11.18,0h2.74v-4.905c0-3.217-.933-4.985-4.409-4.985A6.228,6.228,0,0,0-16.8-28.1l1.589,1.628a3.182,3.182,0,0,1,2.423-1.152A1.774,1.774,0,0,1-10.883-25.9c-2.482,0-6.533.06-6.533,3.4,0,1.946,1.628,2.979,3.436,2.979a3.479,3.479,0,0,0,3.058-1.45h.04Zm0-4.23v.635c0,1.192-1.092,1.807-2.264,1.807-.655,0-1.41-.338-1.41-1.053,0-1.311,2.026-1.39,2.939-1.39Z" transform="translate(6376.671 1348.939)"/></g></svg>